<?xml version="1.0" ?><svg data-name="Layer 1" id="Layer_1" viewBox="0 0 60 60" xmlns="http://www.w3.org/2000/svg"><defs><style>.cls-1{fill:#7aaedc;}.cls-2{fill:#599ad3;}.cls-3,.cls-6,.cls-9{fill:none;stroke:#464c63;stroke-linecap:round;}.cls-3,.cls-6{stroke-miterlimit:10;}.cls-3{stroke-width:1.93333px;}.cls-4{fill:#54c58e;}.cls-5{fill:#29b772;}.cls-6,.cls-9{stroke-width:2px;}.cls-7{fill:#d3d6d9;}.cls-8{fill:#f9fafd;}.cls-9{stroke-linejoin:round;}.cls-10{fill:#575a63;}.cls-11{fill:#cd8d8d;}.cls-12{fill:#e5a8a8;}.cls-13{fill:#ddd;}.cls-14{fill:#464c63;}</style></defs><title/><path class="cls-1" d="M59,30a28.84973,28.84973,0,0,1-4.56,15.62c-.37.58-.76,1.14-1.18,1.69a28.19784,28.19784,0,0,1-3.01,3.44A28.99364,28.99364,0,1,1,59,30Z"/><path class="cls-2" d="M56,35a28.7908,28.7908,0,0,1-2.74,12.31,28.19784,28.19784,0,0,1-3.01,3.44A28.99746,28.99746,0,0,1,3.76,17.65,29.00173,29.00173,0,0,1,56,35Z"/><circle class="cls-3" cx="30" cy="30" r="29"/><path class="cls-4" d="M53.09,47.54A28.67146,28.67146,0,0,1,48.88,52a28.31462,28.31462,0,0,1-7.38,4.62c-.2.09-.41.19-.62.26q-1.05.435-2.13.78c-.66.21-1.32.39-1.98.55A29.10211,29.10211,0,0,1,30,59a28.67316,28.67316,0,0,1-12-2.61A28.311,28.311,0,0,1,11.11,52a28.60742,28.60742,0,0,1-3.02-3.01c-.41-.48-.81-.95-1.18006-1.45Z"/><path class="cls-5" d="M48.88,52a28.31462,28.31462,0,0,1-7.38,4.62c-.2.09-.41.19-.62.26q-1.05.435-2.13.78c-.66.21-1.32.39-1.98.55A29.10211,29.10211,0,0,1,30,59a28.67316,28.67316,0,0,1-12-2.61A28.311,28.311,0,0,1,11.11,52Z"/><path class="cls-6" d="M53.09368,47.53535A28.93807,28.93807,0,0,1,41.50336,56.622c-.203.087-.41572.18367-.62836.261-.696.29-1.40168.551-2.12668.77332-.65732.21264-1.31465.39631-1.98165.551A28.94037,28.94037,0,0,1,30,59,29.084,29.084,0,0,1,8.08568,48.98535c-.406-.47372-.80235-.94738-1.17936-1.45Z"/><path class="cls-7" d="M25,19.43a3.888,3.888,0,0,1-3.89,3.89H9.43a2.42883,2.42883,0,0,1-.48-4.81V18.46A2.44838,2.44838,0,0,1,9.43,17.01V17h.01a2.434,2.434,0,0,1,1.94-.97,2.54236,2.54236,0,0,1,.83.15,3.66,3.66,0,0,1,1.62-1.68,4.60039,4.60039,0,0,1,2.6-3.85,4.4561,4.4561,0,0,1,2-.46,4.622,4.622,0,0,1,4.62,4.62,4.46692,4.46692,0,0,1-.15,1.17A3.88418,3.88418,0,0,1,25,19.43Z"/><path class="cls-8" d="M21,19.43a3.888,3.888,0,0,1-3.89,3.89H9.43a2.42883,2.42883,0,0,1-.48-4.81V18.46A2.44838,2.44838,0,0,1,9.43,17.01V17h.01a2.434,2.434,0,0,1,1.94-.97,2.54236,2.54236,0,0,1,.83.15,3.66,3.66,0,0,1,1.62-1.68,4.60039,4.60039,0,0,1,2.6-3.85,4.61146,4.61146,0,0,1,2.62,4.16,4.46692,4.46692,0,0,1-.15,1.17A3.88418,3.88418,0,0,1,21,19.43Z"/><path class="cls-9" d="M8.95085,18.508c-.00033-.01654-.0049-.03192-.0049-.04855a2.41124,2.41124,0,0,1,.48648-1.4461V17h.011a2.38207,2.38207,0,0,1,2.769-.81682,3.6586,3.6586,0,0,1,1.61425-1.687,4.61848,4.61848,0,1,1,9.07248,1.48321,3.89049,3.89049,0,0,1-1.79107,7.3449H9.43243A2.43221,2.43221,0,0,1,8.95085,18.508Z"/><path class="cls-7" d="M52.32,29.32a3.84678,3.84678,0,0,0,.43-1.76,3.9309,3.9309,0,0,0-7.02-2.44,3.91728,3.91728,0,0,1,3.02,3.82,3.87828,3.87828,0,0,1-.43,1.76A3.36915,3.36915,0,0,1,51,34a3.31065,3.31065,0,0,1-.66,2h1.28a3.37629,3.37629,0,0,0,.7-6.68Z"/><path class="cls-8" d="M51,34a3.31065,3.31065,0,0,1-.66,2H40.38a3.36684,3.36684,0,0,1-1.11-6.55c0-.07-.02-.13-.02-.2a3.21949,3.21949,0,0,1,.53-1.79A3.294,3.294,0,0,1,42.3,25.9c.1-.00995.21-.02.32-.02a3.39372,3.39372,0,0,1,2.33.93,3.80715,3.80715,0,0,1,.78-1.69,3.91728,3.91728,0,0,1,3.02,3.82,3.87828,3.87828,0,0,1-.43,1.76A3.36915,3.36915,0,0,1,51,34Z"/><path class="cls-9" d="M52.31728,29.32237A3.89485,3.89485,0,0,0,52.75,27.5625a3.93554,3.93554,0,0,0-7.79947-.74934A3.36821,3.36821,0,0,0,39.25,29.25c0,.06866.01614.1328.02019.20043A3.36655,3.36655,0,0,0,40.375,36h11.25a3.37467,3.37467,0,0,0,.69228-6.67763Z"/><ellipse class="cls-10" cx="30" cy="51" rx="4" ry="2"/><ellipse class="cls-6" cx="30" cy="51" rx="4" ry="2"/><path class="cls-11" d="M44.09,19.5l-2.78,1.28L33,24.62,30,26V11l3,1.61L44.12,18.6A.504.504,0,0,1,44.09,19.5Z"/><path class="cls-12" d="M41.31,20.78,33,24.62,30,26V14.61L41.12,20.6A.4737.4737,0,0,1,41.31,20.78Z"/><path class="cls-9" d="M44.09,19.5,33,24.62,30,26V11l3,1.61L44.12,18.6A.504.504,0,0,1,44.09,19.5Z"/><path class="cls-13" d="M31,10V50a1,1,0,0,1-2,0V10a1,1,0,0,1,2,0Z"/><rect class="cls-14" height="18" width="2" x="29" y="20"/></svg>